<svg xmlns="http://www.w3.org/2000/svg" viewBox="0 0 556.96 700"><defs><style>.cls-1{fill:#fff;}.cls-2{fill:#4ff0ff;}.cls-3{fill:#0091ff;}.cls-4{fill:#f2f6fa;}.cls-5{fill:#feba02;}.cls-6{fill:#003580;}</style></defs><title>Artboard 1</title><g id="Layer_1"><path class="cls-1" d="M113.12,164.76c-.17-.55-.33-1.11-.48-1.66.35,1.06.49,1.66.49,1.66Z"/><path class="cls-2" d="M31.2,127.52C21.09,129,12.7,132.11,0,141.42L131.09.21C127.78,3.94,82,58.22,112.61,163,109.79,154.6,93.9,118.51,31.2,127.52Z"/><path class="cls-1" d="M443.18,534.06c.09.3.19.59.28.88C443.29,534.45,443.21,534.15,443.18,534.06Z"/><path class="cls-2" d="M525.69,571.28c9.22-1.68,26.82-10.15,30.57-11.94l-.48.52,0,0L425.87,699.8c3.33-3.72,50-58.24,17.61-164.8C445.8,541.89,462.4,582.79,525.69,571.28Z"/><path class="cls-3" d="M413.61,0c-183.73,0-216.7,141.42-216.7,141.42l-65.64,70.71a355.26,355.26,0,0,1-18.15-47.37h0s-.14-.6-.49-1.66l0-.07C82,58.22,127.78,3.94,131.09.21l.18-.21Z"/><path class="cls-1" d="M113.13,164.76h0c-.17-.55-.33-1.11-.48-1.66C113,164.16,113.13,164.76,113.13,164.76Z"/><path class="cls-3" d="M425.87,699.8l-.19.2H143.36c183.71,0,216.69-140.41,216.69-140.41l65.63-70.71A354.11,354.11,0,0,1,443.17,534v0c0,.09.11.39.28.88a.14.14,0,0,0,0,.06C475.86,641.56,429.2,696.08,425.87,699.8Z"/><path class="cls-1" d="M443.46,534.94c-.17-.49-.25-.79-.28-.88C443.27,534.36,443.37,534.65,443.46,534.94Z"/><path class="cls-4" d="M131.27,212.13V350.5S103,248.17,0,235.13V141.42c12.7-9.31,21.09-12.45,31.2-13.9,62.7-9,78.59,27.08,81.41,35.51l0,.07c.15.55.31,1.11.48,1.66A355.26,355.26,0,0,0,131.27,212.13Z"/><path class="cls-1" d="M113.13,164.76h0c-.17-.55-.33-1.11-.48-1.66C113,164.16,113.13,164.76,113.13,164.76Z"/><path class="cls-1" d="M443.46,534.94c-.17-.49-.25-.79-.28-.88C443.27,534.36,443.37,534.65,443.46,534.94Z"/><path class="cls-1" d="M557,559l-.7.33.36-.4Z"/><path class="cls-5" d="M131.27,350.5V559.59C131.27,481.48,72.5,418.17,0,418.17v-183C103,248.17,131.27,350.5,131.27,350.5Z"/><path class="cls-6" d="M360.05,559.59S327.07,700,143.36,700H0c65.11-8.35,131.27-68,131.27-140.41Z"/><path class="cls-6" d="M557,0c-72.5,0-131.28,63.32-131.28,141.42H196.91S229.88,0,413.61,0Z"/><path class="cls-4" d="M425.68,350.51V488.88A354.11,354.11,0,0,1,443.17,534v0c.09.3.19.59.28.88a.14.14,0,0,0,0,.06c2.32,6.89,18.92,47.79,82.21,36.28,9.22-1.68,26.82-10.15,30.57-11.94l.36-.4.34-.36v-92.7C454,452.84,425.68,350.51,425.68,350.51Z"/><path class="cls-5" d="M425.68,141.42V350.51S454,452.84,557,465.88v-183C484.46,282.84,425.68,219.53,425.68,141.42Z"/></g></svg>