<svg xmlns="http://www.w3.org/2000/svg" fill="currentColor" viewBox="0 0 1000 1000"><path d="M690.8 286.6c23.3 0 43.5-18.9 43.5-42.3v-192c0-23.3-20.2-42.3-43.5-42.3s-42.2 18.9-42.2 42.3v192.1c0 23.3 18.9 42.2 42.2 42.2zm-84.3-170.2H392.8v63.8h213.8v-63.8zm250.1 0h-79.4v63.5h82.5c24.3 0 44.7 20.5 44.7 44.8v147.7H94.9V224.7c0-24.3 20.5-44.8 44.7-44.8h83v-63.5h-79.3c-61.5 0-111.8 50.4-111.8 112V878c0 61.6 48.5 112 110 112h715.1c61.5 0 111.8-50.4 111.8-112V228.5c0-61.7-50.3-112.1-111.8-112.1zm47.8 764.9c0 24.3-20.5 44.8-44.7 44.8h-720c-24.3 0-44.7-20.5-44.7-44.8V436.1h809.4v445.2zM264.5 627.8c35.4 0 64.1-28.7 64.1-64.2 0-35.4-28.7-64.2-64.1-64.2s-64.1 28.7-64.1 64.2c0 35.4 28.7 64.2 64.1 64.2zm234.6 0c35.4 0 64.1-28.7 64.1-64.2 0-35.4-28.7-64.2-64.1-64.2S435 528.1 435 563.6c0 35.4 28.7 64.2 64.1 64.2zM263.4 862.5c35.4 0 64.1-28.7 64.1-64.2s-28.7-64.2-64.1-64.2-64.1 28.7-64.1 64.2c0 35.4 28.7 64.2 64.1 64.2zm235.7 0c35.4 0 64.1-28.7 64.1-64.2s-28.7-64.2-64.1-64.2-64.1 28.7-64.1 64.2c0 35.4 28.7 64.2 64.1 64.2zm234.3-234.7c35.4 0 64.1-28.7 64.1-64.2 0-35.4-28.7-64.2-64.1-64.2s-64.1 28.7-64.1 64.2c0 35.4 28.7 64.2 64.1 64.2zM307.3 286.6c23.3 0 43.6-18.9 43.6-42.3v-192c0-23.3-20.2-42.3-43.6-42.3-23.3 0-42.2 18.9-42.2 42.3v192.1c0 23.3 18.9 42.2 42.2 42.2z"/></svg>
